<?xml version="1.0" ?><!DOCTYPE svg  PUBLIC '-//W3C//DTD SVG 1.1//EN'  'http://www.w3.org/Graphics/SVG/1.1/DTD/svg11.dtd'>
<svg clip-rule="evenodd" fill-rule="evenodd" font-size="0" height="512px" image-rendering="optimizeQuality" preserveAspectRatio="xMidYMid" shape-rendering="geometricPrecision" text-rendering="geometricPrecision" version="1.1" viewBox="0, 0, 512000, 512000" width="512px" xml:space="preserve"
    xmlns="http://www.w3.org/2000/svg"
    xmlns:xlink="http://www.w3.org/1999/xlink"
    xmlns:xml="http://www.w3.org/XML/1998/namespace">
    <g>
        <path d="M257130 6860 C394934 6860 506647 118573 506647 256377 C506647 394181 394934 505894 257130 505894 C119326 505894 7613 394181 7613 256377 C7613 118573 119326 6860 257130 6860 z" style="fill:#7cbfaf;" />
    </g>
    <g>
        <path d="M253292 354854 C251305 354854 249725 354267 248552 353093 C247378 351920 246340 350521 245437 348895 L160395 190999 L160395 351333 C160395 352777 159989 354177 159176 355531 C158363 356886 156151 357563 152541 357563 C149291 357563 147259 356886 146446 355531 C145635 354177 145228 352778 145228 351333 L145228 163645 C145228 157506 147575 154437 152270 154437 C154436 154437 156106 154842 157280 155655 C158453 156468 159401 157506 160123 158770 L253832 334272 L353500 158229 C354944 155701 357382 154438 360812 154438 C364784 154438 366771 157236 366771 162833 L366771 351334 C366771 352959 366365 354404 365552 355667 C364739 356931 362708 357563 359459 357563 C355847 357563 353636 356931 352824 355667 C352011 354403 351605 352959 351605 351334 L351605 190187 L261417 348896 C260334 350702 259205 352146 258032 353229 C256858 354312 255278 354854 253292 354854 z" style="fill:#FFFFFF;" />
    </g>
</svg>